<?xml version="1.0" encoding="utf-8"?>
<!-- Generator: Adobe Illustrator 16.0.0, SVG Export Plug-In . SVG Version: 6.00 Build 0)  -->
<!DOCTYPE svg PUBLIC "-//W3C//DTD SVG 1.1//EN" "http://www.w3.org/Graphics/SVG/1.1/DTD/svg11.dtd">
<svg version="1.1" id="Layer_1" xmlns="http://www.w3.org/2000/svg" xmlns:xlink="http://www.w3.org/1999/xlink" x="0px" y="0px"
	 width="500px" height="500px" viewBox="0 0 500 500" enable-background="new 0 0 500 500" xml:space="preserve">
<g>
	<path fill="#50A5E6" d="M250.019,506c-83.813,0-167.626-0.025-251.438,0.086c-3.599,0.005-4.689-0.572-4.686-4.504
		c0.123-167.793,0.123-335.585,0-503.377c-0.003-3.728,0.914-4.294,4.399-4.292c167.792,0.1,335.584,0.098,503.376,0.009
		c3.381-0.002,4.446,0.416,4.443,4.247c-0.131,167.958-0.128,335.917-0.014,503.876c0.003,3.514-0.816,4.049-4.144,4.044
		C417.977,505.976,333.998,506,250.019,506z M393.227,148.669c1.18-2.662,2.961-3.384,4.376-4.445
		c10.346-7.767,18.194-17.529,23.485-29.318c0.627-1.396,2.254-3.145,0.658-4.521c-1.297-1.119-2.748,0.513-4.018,1.172
		c-10.996,5.711-22.544,9.893-34.539,12.98c-4.135,1.063-7.058,0.263-10.32-2.658c-38.174-34.188-96.555-22.384-118.107,23.807
		c-6.301,13.507-8.04,27.722-5.828,42.45c0.816,5.437,0.011,6.216-5.458,5.641c-3.643-0.384-7.299-0.677-10.925-1.184
		c-53.352-7.465-97.746-31.57-133.422-71.866c-3.85-4.349-4.298-4.238-6.762,1.18c-14.221,31.277-5.504,67.98,21.204,89.444
		c1.207,0.97,3.009,1.552,3.098,4.224c-8.855-0.206-17.094-2.381-25.076-5.696c-6.159-2.559-6.879-2.101-6.264,4.427
		c2.782,29.525,23.984,55.32,52.369,63.806c1.648,0.493,3.734,0.291,4.772,2.262c-1.126,1.61-2.897,1.531-4.469,1.858
		c-7.257,1.51-14.615,1.327-21.907,0.699c-4.177-0.359-4.105,0.963-2.835,4.066c5.321,13.009,13.913,23.432,25.081,31.769
		c11.235,8.386,23.953,12.936,37.916,14.064c1.109,0.089,2.586-0.233,3.073,1.1c0.509,1.393-0.903,1.968-1.756,2.68
		c-0.765,0.639-1.615,1.177-2.433,1.75c-27.052,18.973-57.11,28.201-90.138,27.876c-3.015-0.03-6.123-0.551-10.338,0.729
		c4.674,2.615,8.222,4.729,11.882,6.628c43.245,22.431,89.011,28.85,136.822,20.815c46.129-7.751,85.524-28.691,116.688-63.573
		c37.543-42.022,57.007-91.468,56.756-148.156c-0.022-5.236,1.62-8.676,5.766-11.743c10.106-7.479,18.602-16.646,26.213-26.623
		c0.926-1.212,2.961-2.555,1.65-4.197c-1.049-1.314-2.775,0.164-4.112,0.639C415.807,144.488,405.093,147.37,393.227,148.669z"/>
	<path fill-rule="evenodd" clip-rule="evenodd" fill="none" d="M393.227,148.669c11.866-1.299,22.58-4.181,33.103-7.917
		c1.337-0.475,3.063-1.953,4.112-0.639c1.311,1.643-0.725,2.985-1.65,4.197c-7.611,9.977-16.106,19.144-26.213,26.623
		c-4.146,3.067-5.788,6.507-5.766,11.743c0.251,56.688-19.213,106.134-56.756,148.156c-31.164,34.882-70.56,55.822-116.688,63.573
		c-47.811,8.034-93.577,1.615-136.822-20.815c-3.66-1.898-7.208-4.013-11.882-6.628c4.215-1.279,7.323-0.759,10.338-0.729
		c33.028,0.325,63.085-8.903,90.138-27.876c0.818-0.573,1.668-1.111,2.433-1.75c0.853-0.712,2.265-1.287,1.756-2.68
		c-0.487-1.333-1.963-1.011-3.073-1.1c-13.962-1.129-26.681-5.679-37.916-14.064c-11.168-8.337-19.76-18.76-25.081-31.769
		c-1.27-3.104-1.341-4.426,2.835-4.066c7.292,0.628,14.65,0.811,21.907-0.699c1.571-0.327,3.343-0.248,4.469-1.858
		c-1.038-1.971-3.124-1.769-4.772-2.262c-28.385-8.485-49.587-34.28-52.369-63.806c-0.615-6.527,0.104-6.985,6.264-4.427
		c7.981,3.315,16.22,5.49,25.076,5.696c-0.089-2.672-1.891-3.254-3.098-4.224c-26.708-21.464-35.425-58.167-21.204-89.444
		c2.463-5.418,2.912-5.528,6.762-1.18c35.676,40.296,80.07,64.401,133.422,71.866c3.626,0.507,7.282,0.8,10.925,1.184
		c5.468,0.575,6.274-0.204,5.458-5.641c-2.212-14.729-0.473-28.943,5.828-42.45c21.553-46.19,79.934-57.995,118.107-23.807
		c3.263,2.921,6.186,3.722,10.32,2.658c11.995-3.088,23.543-7.27,34.539-12.98c1.27-0.659,2.721-2.291,4.018-1.172
		c1.596,1.376-0.031,3.124-0.658,4.521c-5.291,11.789-13.14,21.552-23.485,29.318C396.188,145.285,394.406,146.007,393.227,148.669z
		"/>
</g>
</svg>
